<svg width="124" height="60" viewBox="0 0 124 60" fill="none" xmlns="http://www.w3.org/2000/svg">
<mask id="mask0_2678_1012" style="mask-type:alpha" maskUnits="userSpaceOnUse" x="0" y="26" width="124" height="24">
<path d="M0 26.5361H123.344V49.0409H0V26.5361Z" fill="black"/>
</mask>
<g mask="url(#mask0_2678_1012)">
<path fill-rule="evenodd" clip-rule="evenodd" d="M9.83304 35.7745C10.6637 35.7745 10.7797 36.0077 10.7797 36.8385V40.629C10.7797 41.4564 10.6637 41.6934 9.83304 41.6934H6.15829C5.33104 41.6934 5.21166 41.4564 5.21166 40.629V35.7745H9.83304ZM-0.000732422 41.6934V43.3532H14.2178V36.0077C14.2178 34.8249 13.5078 34.2337 12.3207 34.2337H6.15829C5.33104 34.2337 5.21166 33.9958 5.21166 33.1668V29.6124H9.47742C10.308 29.6124 10.424 29.8506 10.424 30.6788V31.7453H13.8617V29.8506C13.8617 28.6661 13.1501 28.0728 11.9646 28.0728H-0.000732422V29.6124H2.01361V40.629C2.01361 41.4564 1.89464 41.6934 1.06359 41.6934H-0.000732422ZM68.9572 46.4336C68.9572 47.2605 68.8391 47.4984 68.0105 47.4984H67.3006V49.0409H75.0023V47.4984H72.1565V43.3532H79.3853V34.5883C79.3853 33.4029 78.6749 32.8122 77.4883 32.8122H72.1565V28.3106C72.1565 27.1261 71.4465 26.5361 70.2594 26.5361H66.1131V28.0728H68.9572V32.8122H63.6275C62.4404 32.8122 61.7292 33.4029 61.7292 34.5883V41.5753C61.7292 42.7598 62.4404 43.3532 63.6275 43.3532H68.9572V46.4336ZM65.8802 41.6934C65.0496 41.6934 64.9285 41.4564 64.9285 40.629V35.4165C64.9285 34.5883 65.0496 34.3513 65.8802 34.3513H68.9572V40.629C68.9572 41.4564 68.8391 41.6934 68.0105 41.6934H65.8802ZM72.1565 34.3513H75.239C76.0666 34.3513 76.1856 34.5883 76.1856 35.4165V40.629C76.1856 41.4564 76.0666 41.6934 75.239 41.6934H73.1035C72.2776 41.6934 72.1565 41.4564 72.1565 40.629V34.3513ZM43.4841 35.4165C43.4841 34.5883 43.6014 34.3513 44.4307 34.3513H45.1407V32.8122H38.8627V34.3513H40.2844V35.1787L35.3086 38.7327V35.4165C35.3086 34.5883 35.4263 34.3513 36.2574 34.3513H36.729V32.8122H30.4506V34.3513H32.1076V40.629C32.1076 41.4564 31.9899 41.6934 31.1606 41.6934H30.4506V43.3532H36.9657V41.6934H35.3086V40.8635L40.2844 37.1944V40.629C40.2844 41.4564 40.165 41.6934 39.3344 41.6934H38.624V43.3532H45.1407V41.6934H43.4841V35.4165ZM21.4466 41.6934C20.6151 41.6934 20.4979 41.4564 20.4979 40.629V34.3513H24.4076C25.2352 34.3513 25.3542 34.5883 25.3542 35.4165V40.629C25.3542 41.4564 25.2352 41.6934 24.4076 41.6934H21.4466ZM15.6394 47.4984V49.0409H23.3399V47.4984H20.4979V43.3532H28.5523V34.5883C28.5523 33.4029 27.8419 32.8122 26.6569 32.8122H15.6394V34.3513H17.2981V46.4336C17.2981 47.2605 17.1792 47.4984 16.3502 47.4984H15.6394ZM118.368 35.4165C118.368 34.5883 118.25 34.3513 117.419 34.3513H114.694C114.575 36.9574 113.983 40.037 113.392 41.6934H117.419C118.25 41.6934 118.368 41.4564 118.368 40.629V35.4165ZM100.948 41.6934C100.118 41.6934 100.001 41.4564 100.001 40.629V34.3513H103.91C104.742 34.3513 104.861 34.5883 104.861 35.4165V40.629C104.861 41.4564 104.742 41.6934 103.91 41.6934H100.948ZM89.4553 41.6934C90.2864 41.6934 90.4041 41.4564 90.4041 40.629V35.4165C90.4041 34.5883 90.2864 34.3513 89.4553 34.3513H85.3094V40.629C85.3094 41.4564 85.4271 41.6934 86.2577 41.6934H89.4553ZM111.851 46.9059H109.242V41.6934H109.952C111.14 41.6934 111.495 40.8635 111.968 39.2079C112.444 37.4292 112.68 35.8888 112.68 34.3513H110.901V32.8122H123.228V34.3513H122.514C121.685 34.3513 121.565 34.5883 121.565 35.4165V41.6934H123.344V46.9059H120.735V43.3532H112.798C111.968 43.3532 111.851 43.5906 111.851 44.4188V46.9059ZM95.141 47.4984V49.0409H102.845V47.4984H100.001V43.3532H108.059V34.5883C108.059 33.4029 107.346 32.8122 106.164 32.8122H95.141V34.3513H96.8032V46.4336C96.8032 47.2605 96.6842 47.4984 95.8536 47.4984H95.141ZM84.005 43.3532C82.8213 43.3532 82.1114 42.7598 82.1114 41.5753V34.5883C82.1114 33.4029 82.8213 32.8122 84.005 32.8122H91.7068C92.8934 32.8122 93.6017 33.4029 93.6017 34.5883V43.3532H84.005ZM46.6834 43.3532V41.6934H47.3934C48.2215 41.6934 48.3388 41.4564 48.3388 40.629V34.3513H46.6834V32.8122H52.9601V34.3513H52.4885C51.6592 34.3513 51.5385 34.5883 51.5385 35.4165V37.0738H53.4352C54.3822 37.0738 54.7361 36.6019 55.0935 35.4165C55.8038 33.4029 56.7526 32.8122 59.2424 32.8122H59.7165V35.535H59.3584C56.6349 35.535 57.2276 37.1944 55.9249 37.6675V38.0234C56.7526 38.1411 57.4638 38.2583 58.0565 39.3256C58.4109 39.9172 58.5303 40.5097 58.8876 41.1001C59.2424 41.6934 59.5971 41.8119 60.6644 41.8119V43.3532H56.3982C56.0409 43.1162 55.5672 41.6934 55.4482 41.4564L54.8568 40.037C54.5029 39.089 54.1455 38.6155 52.7252 38.6155H51.5385V41.8119H52.9601V43.3532H46.6834Z" fill="black"/>
</g>
<path fill-rule="evenodd" clip-rule="evenodd" d="M63.3549 17.7483H69.6772V12.0329H63.3549V17.7483ZM63.3549 17.7483L59.8423 12.0329V17.7483H53.1661V5.61668H49.6553V18.3311C49.6553 19.7302 50.4731 20.431 51.878 20.431H70.9649C72.3698 20.431 73.1898 19.7302 73.1898 18.3311V5.61668H65.5772C64.171 5.61668 63.3549 6.31792 63.3549 7.71663V17.7483ZM56.3273 12.0329H59.8423V0H56.3273V12.0329Z" fill="black"/>
</svg>
