<svg width="196" height="36" viewBox="0 0 196 36" fill="none" xmlns="http://www.w3.org/2000/svg">
<path d="M185.451 28.5492C183.236 28.5492 181.359 28.0931 179.837 27.1809C178.332 26.2517 177.182 24.9848 176.387 23.3799C175.592 21.7582 175.203 19.8999 175.203 17.8052C175.203 15.6428 175.609 13.7508 176.404 12.1122C177.216 10.4735 178.382 9.20655 179.871 8.31122C181.376 7.39899 183.185 6.94287 185.282 6.94287C188.479 6.94287 190.948 7.95646 192.707 9.96675C194.465 11.977 195.362 14.7306 195.429 18.2444C195.429 18.464 195.311 18.5654 195.091 18.5654H180.057C180.141 20.8628 180.632 22.569 181.545 23.6502C182.475 24.7483 183.794 25.2888 185.502 25.2888C186.787 25.2888 187.836 24.951 188.631 24.2921C189.426 23.6164 189.984 22.6197 190.271 21.2852C190.305 21.0824 190.423 20.9811 190.609 20.9811H194.601C194.854 20.9811 194.973 21.0656 194.939 21.2345C194.753 22.5859 194.262 23.8191 193.468 24.9172C192.673 26.0152 191.607 26.8937 190.237 27.5356C188.918 28.2114 187.312 28.5492 185.451 28.5492ZM180.192 15.4401H190.221C190.17 14.511 189.95 13.6326 189.578 12.8386C189.206 12.0446 188.665 11.4027 187.954 10.9128C187.261 10.4229 186.382 10.1695 185.333 10.1695C183.862 10.1695 182.695 10.6256 181.849 11.5378C181.004 12.4331 180.446 13.7339 180.192 15.4401Z" fill="#939598"/>
<path d="M168.723 0.32097C168.723 0.101359 168.825 0 169.045 0H173.256C173.476 0 173.577 0.101359 173.577 0.32097L173.492 13.1936L173.577 27.7555C173.577 27.9751 173.476 28.0764 173.256 28.0764H169.045C168.825 28.0764 168.707 27.9582 168.723 27.7386L168.825 25.137C168.132 26.1844 167.252 26.9953 166.17 27.6034C165.121 28.1947 163.87 28.4819 162.449 28.4819C160.555 28.4819 158.949 28.0089 157.63 27.0797C156.327 26.1337 155.346 24.8498 154.687 23.2281C154.027 21.6063 153.706 19.7988 153.706 17.7885C153.706 15.812 154.061 14.0044 154.755 12.3827C155.465 10.7441 156.48 9.44328 157.799 8.48037C159.118 7.50056 160.707 7.01066 162.551 7.01066C165.274 7.01066 167.32 8.04114 168.723 10.119V0.32097ZM163.768 25.2384C165.409 25.2384 166.66 24.6302 167.557 23.4139C168.453 22.1807 168.909 20.3563 168.926 17.9405C168.96 15.4741 168.521 13.5821 167.641 12.2475C166.779 10.913 165.51 10.2373 163.87 10.2204C162.703 10.2035 161.739 10.4907 160.961 11.0819C160.183 11.6732 159.608 12.5178 159.219 13.6328C158.83 14.7308 158.644 16.0316 158.644 17.5351C158.644 19.1399 158.83 20.5083 159.219 21.657C159.608 22.8058 160.183 23.7011 160.944 24.3261C161.705 24.9512 162.652 25.2553 163.768 25.2384Z" fill="#939598"/>
<path d="M142.48 28.5492C140.315 28.5492 138.472 28.11 136.933 27.2316C135.394 26.3531 134.244 25.103 133.449 23.4813C132.655 21.8595 132.266 19.9675 132.266 17.7883C132.266 15.626 132.655 13.7339 133.449 12.0953C134.244 10.4566 135.411 9.20655 136.933 8.31122C138.455 7.39899 140.299 6.94287 142.48 6.94287C144.662 6.94287 146.488 7.38209 147.993 8.26054C149.498 9.13898 150.648 10.3891 151.443 12.0108C152.238 13.6326 152.627 15.5246 152.627 17.7038C152.627 19.883 152.238 21.792 151.443 23.4137C150.648 25.0523 149.498 26.3024 147.993 27.1978C146.488 28.0931 144.645 28.5492 142.48 28.5492ZM142.48 25.3057C144.239 25.3057 145.558 24.6807 146.421 23.4137C147.283 22.1636 147.706 20.2716 147.706 17.7883C147.706 15.3219 147.266 13.4467 146.404 12.1629C145.541 10.8452 144.222 10.2033 142.463 10.2033C140.688 10.2201 139.352 10.879 138.489 12.1797C137.627 13.4805 137.187 15.3557 137.187 17.839C137.187 20.3054 137.627 22.1805 138.506 23.4306C139.402 24.6638 140.721 25.3057 142.48 25.3057Z" fill="#939598"/>
<path d="M121.966 28.5492C119.835 28.5492 118.025 28.11 116.503 27.2316C114.981 26.3531 113.831 25.103 113.036 23.4982C112.242 21.8764 111.853 19.9844 111.853 17.8052C111.853 15.626 112.258 13.717 113.053 12.0953C113.848 10.4566 115.015 9.20655 116.52 8.31122C118.042 7.39899 119.885 6.94287 122.067 6.94287C124.671 6.94287 126.768 7.6186 128.324 8.97005C129.897 10.3215 130.81 12.1122 131.03 14.3252C131.064 14.5448 130.963 14.663 130.709 14.663H126.904C126.701 14.663 126.582 14.5617 126.549 14.3421C126.329 12.9737 125.805 11.9601 125.01 11.2675C124.215 10.5749 123.234 10.2201 122.084 10.2201C120.308 10.2201 118.972 10.8621 118.11 12.1629C117.247 13.4636 116.825 15.3219 116.825 17.7714C116.825 20.2716 117.264 22.1467 118.127 23.3799C118.989 24.63 120.308 25.2551 122.084 25.2888C123.403 25.3057 124.469 24.9003 125.297 24.0725C126.143 23.2448 126.633 22.0622 126.768 20.5419C126.802 20.3223 126.904 20.2209 127.107 20.2209H131.013C131.25 20.2209 131.368 20.3223 131.335 20.525C131.199 22.0791 130.726 23.4644 129.931 24.6807C129.136 25.8801 128.054 26.8261 126.701 27.5356C125.331 28.2114 123.775 28.5492 121.966 28.5492Z" fill="#939598"/>
<path d="M96.6484 27.7386C96.6484 27.9583 96.53 28.0596 96.3102 28.0596H92.0147C91.7948 28.0596 91.6934 27.9583 91.6934 27.7386L91.7948 18.4136L91.761 7.73714C91.761 7.51753 91.8625 7.41617 92.0823 7.41617H96.1242C96.344 7.41617 96.4455 7.53442 96.4455 7.75403L96.344 10.5245C96.7837 9.86568 97.3418 9.27442 97.9844 8.73384C98.6609 8.19326 99.4219 7.75403 100.267 7.43306C101.13 7.0952 102.077 6.92627 103.126 6.92627C105.273 6.92627 106.998 7.63578 108.267 9.03791C109.552 10.4232 110.195 12.4334 110.195 15.0519V19.2583L110.279 27.7386C110.279 27.9583 110.161 28.0596 109.941 28.0596H105.713C105.493 28.0596 105.392 27.9583 105.392 27.7386L105.476 19.2583V15.1701C105.476 13.6329 105.121 12.4841 104.411 11.707C103.717 10.9131 102.821 10.5245 101.722 10.5245C100.91 10.5245 100.132 10.761 99.3881 11.234C98.6609 11.6901 98.0521 12.3828 97.5616 13.3119C97.0712 14.241 96.7499 15.4235 96.5977 16.8426V19.2583L96.6484 27.7386Z" fill="#121212"/>
<path d="M79.7544 35.9991C78.0632 36.016 76.5243 35.7795 75.1375 35.3234C73.7677 34.8504 72.6684 34.1409 71.8229 33.1611C70.9773 32.1982 70.5038 30.965 70.4023 29.4784C70.3685 29.2587 70.47 29.1405 70.7067 29.1405H74.8162C75.0191 29.1405 75.1375 29.2418 75.1713 29.4615C75.3236 30.5764 75.814 31.4042 76.6426 31.9448C77.4713 32.5022 78.5536 32.7894 79.8896 32.7894C81.3948 32.7894 82.6124 32.3164 83.5425 31.3873C84.4727 30.4582 84.9462 29.0053 84.9462 26.9951V24.6469C84.2697 25.6943 83.4242 26.5052 82.3756 27.0964C81.3271 27.6877 80.1264 27.9749 78.7566 27.9749C76.761 27.9749 75.0868 27.5188 73.7339 26.6065C72.3979 25.6943 71.3832 24.4611 70.6898 22.9238C70.0133 21.3527 69.6582 19.6128 69.6582 17.67C69.6582 15.7273 70.0133 13.9535 70.7067 12.3656C71.417 10.7607 72.4317 9.49375 73.7508 8.53084C75.0868 7.58483 76.6934 7.11182 78.5536 7.11182C79.9235 7.11182 81.1242 7.38211 82.1727 7.93958C83.2212 8.48016 84.1006 9.25725 84.7771 10.2877L84.6756 7.78754C84.6587 7.56793 84.7771 7.44968 84.9969 7.44968H89.1571C89.377 7.44968 89.4954 7.55104 89.4954 7.77065L89.4108 16.724L89.4446 27.0457C89.4616 29.85 88.6329 32.0461 86.9756 33.6172C85.3351 35.2051 82.9337 35.9991 79.7544 35.9991ZM79.822 24.7652C81.3948 24.7652 82.6462 24.1908 83.5425 23.0421C84.4388 21.8933 84.8954 20.1533 84.9124 17.8221C84.9462 15.4233 84.5065 13.565 83.6271 12.2642C82.7477 10.9466 81.4793 10.3046 79.8558 10.3046C78.6889 10.2708 77.725 10.558 76.9471 11.1324C76.186 11.7068 75.5941 12.5345 75.2052 13.6157C74.8162 14.68 74.6302 15.9807 74.6302 17.4842C74.6302 19.8493 75.0699 21.6568 75.9493 22.9238C76.8118 24.157 78.1139 24.7652 79.822 24.7652Z" fill="#121212"/>
<path d="M67.9007 27.7387C67.9007 27.9583 67.7993 28.0597 67.5794 28.0597H63.3008C63.081 28.0597 62.9795 27.9583 62.9795 27.7387L63.081 17.569L62.9795 7.72032C62.9795 7.50071 63.081 7.39935 63.3008 7.39935H67.5794C67.7993 7.39935 67.9007 7.50071 67.9007 7.72032L67.7993 17.569L67.9007 27.7387ZM67.9007 4.93295C67.9007 5.15256 67.7993 5.25392 67.5794 5.25392H63.3177C63.0979 5.25392 62.9964 5.15256 62.9964 4.93295V0.96306C62.9964 0.743449 63.0979 0.64209 63.3177 0.64209H67.5794C67.7993 0.64209 67.9007 0.743449 67.9007 0.96306V4.93295Z" fill="#121212"/>
<path d="M52.0357 28.5322C50.1078 28.5322 48.4336 28.2619 47.013 27.7383C45.5924 27.2146 44.4763 26.4037 43.6814 25.3394C42.8866 24.2752 42.4638 22.9406 42.4131 21.3695C42.4131 21.1499 42.5146 21.0317 42.7344 21.0317H46.7762C46.9961 21.0317 47.0976 21.1499 47.0976 21.3695C47.1652 22.7886 47.6387 23.8359 48.5012 24.4948C49.3806 25.1705 50.6321 25.4915 52.2556 25.4915C53.6254 25.4915 54.6908 25.2212 55.4688 24.6975C56.2467 24.1569 56.6356 23.3798 56.6356 22.4C56.6356 21.7074 56.382 21.1837 55.8915 20.8121C55.4011 20.4404 54.7416 20.1532 53.9298 19.9674C53.1181 19.7647 52.2217 19.5957 51.2409 19.4606C50.26 19.3086 49.2791 19.1396 48.2983 18.92C47.3174 18.7004 46.4211 18.3794 45.6094 17.9571C44.8145 17.5348 44.155 16.9435 43.6476 16.2171C43.1572 15.4738 42.9035 14.494 42.9035 13.2777C42.9035 11.2167 43.6814 9.66257 45.2373 8.58141C46.8101 7.51714 48.8902 6.97656 51.5115 6.97656C53.2026 6.97656 54.7077 7.21307 56.0268 7.68608C57.3459 8.15908 58.3944 8.8686 59.1724 9.81461C59.9672 10.7437 60.4069 11.9432 60.5253 13.3791C60.5591 13.5987 60.4407 13.7169 60.204 13.7169H56.3481C56.1452 13.7169 56.0268 13.6156 56.0099 13.4129C55.9085 12.6527 55.6886 12.0107 55.2996 11.5039C54.9276 10.9971 54.4202 10.6086 53.7776 10.3552C53.135 10.0849 52.357 9.94976 51.4438 9.94976C50.2431 9.94976 49.2791 10.1863 48.5689 10.6762C47.8586 11.1492 47.5034 11.8925 47.5034 12.923C47.5034 13.5818 47.7571 14.0886 48.2475 14.4433C48.738 14.7981 49.3975 15.0515 50.2093 15.2204C51.021 15.3894 51.9173 15.5414 52.8982 15.6765C53.8791 15.7948 54.843 15.9637 55.8239 16.2002C56.8048 16.4198 57.7011 16.7408 58.5128 17.1631C59.3246 17.5855 59.9841 18.1936 60.4746 18.9707C60.965 19.7309 61.2187 20.7276 61.2187 21.9777C61.2187 23.3629 60.8128 24.5454 60.0179 25.5252C59.2231 26.5051 58.1408 27.2483 56.754 27.772C55.3673 28.2788 53.7945 28.5322 52.0357 28.5322Z" fill="#121212"/>
<path d="M31.7249 28.5492C29.5095 28.5492 27.6323 28.0931 26.1103 27.1809C24.6052 26.2517 23.4552 24.9848 22.6604 23.3799C21.8655 21.7582 21.4766 19.8999 21.4766 17.8052C21.4766 15.6428 21.8824 13.7508 22.6773 12.1122C23.489 10.4735 24.6559 9.20655 26.1441 8.31122C27.6493 7.39899 29.4588 6.94287 31.5558 6.94287C34.7521 6.94287 37.2212 7.95646 38.9799 9.96675C40.7387 11.977 41.635 14.7306 41.7027 18.2444C41.7027 18.464 41.5843 18.5654 41.3645 18.5654H26.3302C26.4147 20.8628 26.9051 22.569 27.8184 23.6502C28.7485 24.7483 30.0676 25.2888 31.7757 25.2888C33.0609 25.2888 34.1094 24.951 34.9043 24.2921C35.6991 23.6164 36.2572 22.6197 36.5447 21.2852C36.5785 21.0824 36.6969 20.9811 36.8829 20.9811H40.874C41.1277 20.9811 41.2461 21.0656 41.2123 21.2345C41.0262 22.5859 40.5358 23.8191 39.741 24.9172C38.9461 26.0152 37.8807 26.8937 36.5109 27.5356C35.1918 28.2114 33.5852 28.5492 31.7249 28.5492ZM26.4824 15.4401H36.5109C36.4601 14.511 36.2403 13.6326 35.8682 12.8386C35.4962 12.0446 34.955 11.4027 34.2447 10.9128C33.5514 10.4229 32.672 10.1695 31.6235 10.1695C30.1522 10.1695 28.9853 10.6256 28.1397 11.5378C27.2772 12.4331 26.736 13.7339 26.4824 15.4401Z" fill="#121212"/>
<path d="M15.0174 0.32097C15.0174 0.101359 15.1189 0 15.3387 0H19.5497C19.7695 0 19.871 0.101359 19.871 0.32097L19.7864 13.1936L19.871 27.7555C19.871 27.9751 19.7695 28.0764 19.5497 28.0764H15.3387C15.1189 28.0764 15.0005 27.9582 15.0174 27.7386L15.1189 25.137C14.4255 26.1844 13.5461 26.9953 12.4638 27.6034C11.4152 28.1947 10.1638 28.4819 8.74324 28.4819C6.84915 28.4819 5.24256 28.0089 3.92346 27.0797C2.62128 26.1337 1.64041 24.8498 0.980866 23.2281C0.321318 21.5895 0 19.7819 0 17.7885C0 15.812 0.355141 14.0044 1.04851 12.3827C1.75879 10.7441 2.77348 9.44328 4.09258 8.48037C5.41167 7.50056 7.00135 7.01066 8.8447 7.01066C11.5675 7.01066 13.6137 8.04114 15.0174 10.119V0.32097ZM10.0623 25.2384C11.7027 25.2384 12.9542 24.6302 13.8505 23.4139C14.7468 22.1807 15.2034 20.3563 15.2203 17.9405C15.2542 15.4741 14.8145 13.5821 13.9351 12.2475C13.0726 10.913 11.8042 10.2373 10.1638 10.2204C8.99691 10.2035 8.03295 10.4907 7.25503 11.0819C6.4771 11.6732 5.90211 12.5178 5.51314 13.6328C5.12418 14.7308 4.93815 16.0316 4.93815 17.5351C4.93815 19.1399 5.12418 20.5083 5.51314 21.657C5.90211 22.8058 6.4771 23.7011 7.23811 24.3261C7.98222 24.9512 8.92926 25.2553 10.0623 25.2384Z" fill="#121212"/>
</svg>
